<svg xmlns="http://www.w3.org/2000/svg" viewBox="0 0 24 24"><path d="M20 6h-2.18c.11-.31.18-.65.18-1 0-1.66-1.34-3-3-3-1.05 0-1.92.54-2.5 1.35l-.5.67-.5-.68C10.92 3.54 10.05 3 9 3 7.34 3 6 4.34 6 6c0 .35.07.69.18 1H4c-1.1 0-2 .9-2 2v1c0 2.55 1.92 4.63 4.39 4.94L8 19h1l1-2.06C11.42 17.63 12.29 18 13 18c3.31 0 6-2.69 6-6V7c0-.55-.45-1-1-1zm-8.47-1.67l.47.64.47-.64C11.83 3.03 12 3.16 12 3.5c0 .26-.17.49-.39.71zM7 6c0-1.1.9-2 2-2s2 .9 2 2c0 .26-.17.49-.39.71l.47.64.47-.64C13.83 6.49 14 6.62 14 6.96c0 2.21-1.79 4-4 4s-4-1.79-4-4zm10 5c0 .85.19 1.64.53 2.34L17 16H7l-.53-1.66C7.81 13.64 8 12.85 8 12c0-2.21-1.79-4-4-4V7c0-.55.45-1 1-1h2.18C6.93 6.31 7 6.65 7 7v5c0 2.21 1.79 4 4 4s4-1.79 4-4v-5c0-.35-.07-.69-.18-1H19c.55 0 1 .45 1 1z"/></svg>