<svg xmlns="http://www.w3.org/2000/svg" viewBox="0 0 24 24"><path d="M4.93 19.07c-1.18-3.76.71-7.26 5.13-7.26 1.44 0 2.68.61 3.64 1.96l-.85.71c-.67-.91-1.46-1.19-2.9-1.19-3.19 0-4.71 2.67-3.45 5.74l.8-.2zM11.26 2c-1.23.01-2.39.54-3.17 1.5L6.06 3.7c.78-.97 1.95-1.51 3.2-1.5h2.1v.5zM2 23l1.81-1.62c2.64 1.22 5.44 1.07 8.17-.45l-.73-1.3c-2.3 1.26-4.52 1.39-6.55.42L2.04 22.21 2 23zm7.97-2.99c-1.87 1.23-4.17 1.67-6.36 1.09l.99-.84c1.88.5 3.9-.27 5.47-1.64L11.05 19.1v.9zm3.21-1.99c-1.99 1.35-4.36 1.75-6.52 1.1l.67-.83c1.88.55 3.95.08 5.61-1.1L14.1 19.11v.9zm2.3-3.06c-1.61 1.27-3.48 1.68-5.28 1.16l.55-.85c1.48.44 3.05.03 4.29-1l.44.79zm.7-3.28c-.85 1.15-2.03 1.79-3.19 1.85l.06-1.03c.86-.05 1.76-.59 2.4-1.55l.56.73z"/></svg>