<svg xmlns="http://www.w3.org/2000/svg" viewBox="0 0 24 24"><path d="M24 4.56c-.83.35-1.76.55-2.69.6-.69-.27-1.42-.42-2.17-.46C17.53 3.72 15.86 4 14.29 4c-4.08 0-7.38 3.29-7.38 7.38 0 1.7.58 3.25 1.53 4.47L4.43 20h1.64l3.18-4.57c.82.59 1.78.95 2.81 1.07-.54 1.72-2.05 3-3.88 3-1.2 0-2.3-.46-3.08-1.17l-.53.64 1.05 1.25c.9 1.06 2.14 1.73 3.51 1.84-.18.44-.47.84-.83 1.17v.06h3.14l-1.07 1.1c.9.27 1.88.42 2.88.42C19.5 23 24 18.44 24 12.56 24 8.87 21.04 5.84 17.43 5.5c-.51-2.47-2.9-4.36-5.53-4.5V4z"/></svg>